<mxfile host="65bd71144e">
    <diagram name="Page-1" id="2YBvvXClWsGukQMizWep">
        <mxGraphModel dx="1516" dy="846" grid="1" gridSize="10" guides="1" tooltips="1" connect="1" arrows="1" fold="1" page="1" pageScale="1" pageWidth="850" pageHeight="1100" background="none" math="0" shadow="0">
            <root>
                <mxCell id="0"/>
                <mxCell id="1" parent="0"/>
                <mxCell id="aM9ryv3xv72pqoxQDRHE-7" value="Acceder a la page d'inscription&amp;nbsp;" style="html=1;verticalAlign=bottom;endArrow=block;edgeStyle=elbowEdgeStyle;elbow=vertical;curved=0;rounded=0;" parent="1" edge="1">
                    <mxGeometry relative="1" as="geometry">
                        <mxPoint x="210" y="220" as="sourcePoint"/>
                        <Array as="points">
                            <mxPoint x="308" y="220"/>
                        </Array>
                        <mxPoint x="640" y="220" as="targetPoint"/>
                    </mxGeometry>
                </mxCell>
                <mxCell id="aM9ryv3xv72pqoxQDRHE-8" value="Valider les information" style="html=1;verticalAlign=bottom;endArrow=open;dashed=1;endSize=8;edgeStyle=elbowEdgeStyle;elbow=vertical;curved=0;rounded=0;" parent="1" edge="1">
                    <mxGeometry relative="1" as="geometry">
                        <mxPoint x="220" y="344" as="targetPoint"/>
                        <Array as="points">
                            <mxPoint x="325" y="344"/>
                        </Array>
                        <mxPoint x="640" y="350" as="sourcePoint"/>
                    </mxGeometry>
                </mxCell>
                <mxCell id="aM9ryv3xv72pqoxQDRHE-9" value="Affiche le formulaire d'inscription&amp;nbsp;" style="html=1;verticalAlign=bottom;endArrow=block;edgeStyle=elbowEdgeStyle;elbow=vertical;curved=0;rounded=0;" parent="1" edge="1">
                    <mxGeometry relative="1" as="geometry">
                        <mxPoint x="640" y="260" as="sourcePoint"/>
                        <Array as="points">
                            <mxPoint x="330" y="260"/>
                        </Array>
                        <mxPoint x="220" y="260" as="targetPoint"/>
                    </mxGeometry>
                </mxCell>
                <mxCell id="vxIU2zjqEwHFk4gDYXtd-3" value="Utilisateure" style="shape=umlActor;html=1;verticalLabelPosition=bottom;verticalAlign=top;align=center;" parent="1" vertex="1">
                    <mxGeometry x="200" y="130" width="30" height="60" as="geometry"/>
                </mxCell>
                <mxCell id="vxIU2zjqEwHFk4gDYXtd-11" value="Soumettre&amp;nbsp; les information (nom, email, mot de passe)" style="html=1;verticalAlign=bottom;endArrow=block;edgeStyle=elbowEdgeStyle;elbow=vertical;curved=0;rounded=0;" parent="1" edge="1">
                    <mxGeometry relative="1" as="geometry">
                        <mxPoint x="220" y="305" as="sourcePoint"/>
                        <Array as="points">
                            <mxPoint x="316" y="304.5"/>
                        </Array>
                        <mxPoint x="640" y="310" as="targetPoint"/>
                    </mxGeometry>
                </mxCell>
                <mxCell id="vxIU2zjqEwHFk4gDYXtd-15" value="" style="edgeStyle=none;html=1;dashed=1;endArrow=none;rounded=0;" parent="1" edge="1">
                    <mxGeometry x="1" relative="1" as="geometry">
                        <mxPoint x="215" y="210" as="targetPoint"/>
                        <mxPoint x="214.5" y="170" as="sourcePoint"/>
                        <Array as="points">
                            <mxPoint x="214.5" y="220"/>
                        </Array>
                    </mxGeometry>
                </mxCell>
                <mxCell id="vxIU2zjqEwHFk4gDYXtd-16" value="" style="html=1;shape=mxgraph.sysml.package;labelX=40;whiteSpace=wrap;align=center;" parent="1" vertex="1">
                    <mxGeometry x="220" y="380" width="420" height="140" as="geometry"/>
                </mxCell>
                <mxCell id="vxIU2zjqEwHFk4gDYXtd-17" value="Alt" style="html=1;align=left;verticalAlign=top;labelPosition=left;verticalLabelPosition=top;labelBackgroundColor=none;spacingLeft=5;spacingTop=-2;fontStyle=1;" parent="vxIU2zjqEwHFk4gDYXtd-16" connectable="0" vertex="1">
                    <mxGeometry as="geometry"/>
                </mxCell>
                <mxCell id="vxIU2zjqEwHFk4gDYXtd-29" value="Envoyer un email de confirmation&amp;nbsp; (OTP)" style="html=1;verticalAlign=bottom;endArrow=block;edgeStyle=elbowEdgeStyle;elbow=vertical;curved=0;rounded=0;exitX=1;exitY=0.66;exitDx=0;exitDy=0;exitPerimeter=0;" parent="vxIU2zjqEwHFk4gDYXtd-16" edge="1">
                    <mxGeometry relative="1" as="geometry">
                        <mxPoint x="419.9999999999999" y="41.42995169082122" as="sourcePoint"/>
                        <Array as="points">
                            <mxPoint x="96.92307692307689" y="42.363285024154585"/>
                        </Array>
                        <mxPoint y="42.363285024154585" as="targetPoint"/>
                    </mxGeometry>
                </mxCell>
                <mxCell id="vxIU2zjqEwHFk4gDYXtd-36" value="Copier le OTP envoyer dans le site" style="html=1;verticalAlign=bottom;endArrow=block;edgeStyle=elbowEdgeStyle;elbow=vertical;curved=0;rounded=0;" parent="vxIU2zjqEwHFk4gDYXtd-16" edge="1">
                    <mxGeometry relative="1" as="geometry">
                        <mxPoint y="72.1111111111111" as="sourcePoint"/>
                        <Array as="points">
                            <mxPoint x="26.92307692307692" y="72.1111111111111"/>
                        </Array>
                        <mxPoint x="419.9999999999999" y="72.1111111111111" as="targetPoint"/>
                    </mxGeometry>
                </mxCell>
                <mxCell id="vxIU2zjqEwHFk4gDYXtd-37" value="Afficher un message de confirmation&amp;nbsp;" style="html=1;verticalAlign=bottom;endArrow=block;edgeStyle=elbowEdgeStyle;elbow=vertical;curved=0;rounded=0;exitX=1;exitY=0.66;exitDx=0;exitDy=0;exitPerimeter=0;" parent="vxIU2zjqEwHFk4gDYXtd-16" edge="1">
                    <mxGeometry relative="1" as="geometry">
                        <mxPoint x="419.9999999999999" y="132.04212560386472" as="sourcePoint"/>
                        <Array as="points">
                            <mxPoint x="96.92307692307689" y="132.97545893719808"/>
                        </Array>
                        <mxPoint y="132.97545893719808" as="targetPoint"/>
                    </mxGeometry>
                </mxCell>
                <mxCell id="vxIU2zjqEwHFk4gDYXtd-38" value="" style="html=1;shape=mxgraph.sysml.package;labelX=40;whiteSpace=wrap;align=center;" parent="1" vertex="1">
                    <mxGeometry x="220" y="530" width="420" height="80" as="geometry"/>
                </mxCell>
                <mxCell id="vxIU2zjqEwHFk4gDYXtd-39" value="Else" style="html=1;align=left;verticalAlign=top;labelPosition=left;verticalLabelPosition=top;labelBackgroundColor=none;spacingLeft=5;spacingTop=-2;fontStyle=1;" parent="vxIU2zjqEwHFk4gDYXtd-38" connectable="0" vertex="1">
                    <mxGeometry as="geometry"/>
                </mxCell>
                <mxCell id="vxIU2zjqEwHFk4gDYXtd-43" value="Affiche une message erreur" style="html=1;verticalAlign=bottom;endArrow=block;edgeStyle=elbowEdgeStyle;elbow=vertical;curved=0;rounded=0;exitX=1;exitY=0.66;exitDx=0;exitDy=0;exitPerimeter=0;" parent="vxIU2zjqEwHFk4gDYXtd-38" edge="1">
                    <mxGeometry relative="1" as="geometry">
                        <mxPoint x="420" y="49.999951690821206" as="sourcePoint"/>
                        <Array as="points">
                            <mxPoint x="96.92307692307692" y="50.9332850241546"/>
                        </Array>
                        <mxPoint y="50.9332850241546" as="targetPoint"/>
                    </mxGeometry>
                </mxCell>
                <mxCell id="2" value="" style="edgeStyle=none;orthogonalLoop=1;jettySize=auto;html=1;endArrow=none;endFill=0;" edge="1" parent="1">
                    <mxGeometry width="100" relative="1" as="geometry">
                        <mxPoint x="214.5" y="220" as="sourcePoint"/>
                        <mxPoint x="215" y="650" as="targetPoint"/>
                        <Array as="points"/>
                    </mxGeometry>
                </mxCell>
                <mxCell id="4" value="Systeme" style="whiteSpace=wrap;html=1;" vertex="1" parent="1">
                    <mxGeometry x="590" y="140" width="110" height="50" as="geometry"/>
                </mxCell>
                <mxCell id="5" value="" style="edgeStyle=none;orthogonalLoop=1;jettySize=auto;html=1;endArrow=none;endFill=0;" edge="1" parent="1">
                    <mxGeometry width="100" relative="1" as="geometry">
                        <mxPoint x="644.5" y="190" as="sourcePoint"/>
                        <mxPoint x="645" y="620" as="targetPoint"/>
                        <Array as="points"/>
                    </mxGeometry>
                </mxCell>
                <mxCell id="7" value="Projet" style="whiteSpace=wrap;html=1;" vertex="1" parent="1">
                    <mxGeometry x="880" y="140" width="110" height="50" as="geometry"/>
                </mxCell>
                <mxCell id="8" value="" style="edgeStyle=none;orthogonalLoop=1;jettySize=auto;html=1;endArrow=none;endFill=0;" edge="1" parent="1">
                    <mxGeometry width="100" relative="1" as="geometry">
                        <mxPoint x="934.5" y="190" as="sourcePoint"/>
                        <mxPoint x="935" y="620" as="targetPoint"/>
                        <Array as="points"/>
                    </mxGeometry>
                </mxCell>
                <mxCell id="9" value="Tache" style="whiteSpace=wrap;html=1;" vertex="1" parent="1">
                    <mxGeometry x="1170" y="140" width="110" height="50" as="geometry"/>
                </mxCell>
                <mxCell id="10" value="" style="edgeStyle=none;orthogonalLoop=1;jettySize=auto;html=1;endArrow=none;endFill=0;" edge="1" parent="1">
                    <mxGeometry width="100" relative="1" as="geometry">
                        <mxPoint x="1224.5" y="190" as="sourcePoint"/>
                        <mxPoint x="1225" y="620" as="targetPoint"/>
                        <Array as="points"/>
                    </mxGeometry>
                </mxCell>
                <mxCell id="11" value="Creer un projet" style="html=1;verticalAlign=bottom;endArrow=block;edgeStyle=elbowEdgeStyle;elbow=vertical;curved=0;rounded=0;" edge="1" parent="1">
                    <mxGeometry relative="1" as="geometry">
                        <mxPoint x="650" y="220" as="sourcePoint"/>
                        <Array as="points">
                            <mxPoint x="748" y="220"/>
                        </Array>
                        <mxPoint x="930" y="220" as="targetPoint"/>
                    </mxGeometry>
                </mxCell>
                <mxCell id="13" value="Envoie d une invitation" style="html=1;verticalAlign=bottom;endArrow=block;edgeStyle=elbowEdgeStyle;elbow=vertical;curved=0;rounded=0;" edge="1" parent="1">
                    <mxGeometry relative="1" as="geometry">
                        <mxPoint x="930" y="310" as="sourcePoint"/>
                        <Array as="points">
                            <mxPoint x="758" y="310"/>
                        </Array>
                        <mxPoint x="650" y="310" as="targetPoint"/>
                    </mxGeometry>
                </mxCell>
                <mxCell id="15" value="Inviter un utilisateur&amp;nbsp;" style="html=1;verticalAlign=bottom;endArrow=block;edgeStyle=elbowEdgeStyle;elbow=vertical;curved=0;rounded=0;" edge="1" parent="1">
                    <mxGeometry relative="1" as="geometry">
                        <mxPoint x="650" y="270" as="sourcePoint"/>
                        <Array as="points">
                            <mxPoint x="748" y="270"/>
                        </Array>
                        <mxPoint x="930" y="270" as="targetPoint"/>
                    </mxGeometry>
                </mxCell>
                <mxCell id="16" value="Ajouter_tache" style="html=1;verticalAlign=bottom;endArrow=block;edgeStyle=elbowEdgeStyle;elbow=vertical;curved=0;rounded=0;" edge="1" parent="1">
                    <mxGeometry relative="1" as="geometry">
                        <mxPoint x="940" y="220" as="sourcePoint"/>
                        <Array as="points">
                            <mxPoint x="1038" y="220"/>
                        </Array>
                        <mxPoint x="1220" y="220" as="targetPoint"/>
                    </mxGeometry>
                </mxCell>
                <mxCell id="17" value="Affecter_tache" style="html=1;verticalAlign=bottom;endArrow=block;edgeStyle=elbowEdgeStyle;elbow=vertical;curved=0;rounded=0;" edge="1" parent="1">
                    <mxGeometry relative="1" as="geometry">
                        <mxPoint x="940" y="270" as="sourcePoint"/>
                        <Array as="points">
                            <mxPoint x="1038" y="270"/>
                        </Array>
                        <mxPoint x="1219.9999999999998" y="270" as="targetPoint"/>
                    </mxGeometry>
                </mxCell>
                <mxCell id="18" value="" style="html=1;shape=mxgraph.sysml.package;labelX=40;whiteSpace=wrap;align=center;" vertex="1" parent="1">
                    <mxGeometry x="650" y="340" width="280" height="100" as="geometry"/>
                </mxCell>
                <mxCell id="19" value="Alt" style="html=1;align=left;verticalAlign=top;labelPosition=left;verticalLabelPosition=top;labelBackgroundColor=none;spacingLeft=5;spacingTop=-2;fontStyle=1;" connectable="0" vertex="1" parent="18">
                    <mxGeometry as="geometry"/>
                </mxCell>
                <mxCell id="20" value="Envoyer une invitation" style="html=1;verticalAlign=bottom;endArrow=block;edgeStyle=elbowEdgeStyle;elbow=vertical;curved=0;rounded=0;exitX=1;exitY=0.66;exitDx=0;exitDy=0;exitPerimeter=0;" edge="1" parent="18">
                    <mxGeometry relative="1" as="geometry">
                        <mxPoint x="280" y="29.592822636300873" as="sourcePoint"/>
                        <Array as="points">
                            <mxPoint x="64.61538461538461" y="30.259489302967562"/>
                        </Array>
                        <mxPoint y="30.259489302967562" as="targetPoint"/>
                    </mxGeometry>
                </mxCell>
                <mxCell id="21" value="Accepter l'invitation" style="html=1;verticalAlign=bottom;endArrow=block;edgeStyle=elbowEdgeStyle;elbow=vertical;curved=0;rounded=0;" edge="1" parent="18">
                    <mxGeometry relative="1" as="geometry">
                        <mxPoint y="51.5079365079365" as="sourcePoint"/>
                        <Array as="points">
                            <mxPoint x="17.94871794871795" y="51.5079365079365"/>
                        </Array>
                        <mxPoint x="280" y="51.5079365079365" as="targetPoint"/>
                    </mxGeometry>
                </mxCell>
                <mxCell id="23" value="" style="html=1;shape=mxgraph.sysml.package;labelX=40;whiteSpace=wrap;align=center;" vertex="1" parent="1">
                    <mxGeometry x="650" y="450" width="280" height="80" as="geometry"/>
                </mxCell>
                <mxCell id="24" value="Else" style="html=1;align=left;verticalAlign=top;labelPosition=left;verticalLabelPosition=top;labelBackgroundColor=none;spacingLeft=5;spacingTop=-2;fontStyle=1;" connectable="0" vertex="1" parent="23">
                    <mxGeometry as="geometry"/>
                </mxCell>
                <mxCell id="25" value="Refuser l'invitation" style="html=1;verticalAlign=bottom;endArrow=block;edgeStyle=elbowEdgeStyle;elbow=vertical;curved=0;rounded=0;exitX=1;exitY=0.66;exitDx=0;exitDy=0;exitPerimeter=0;" edge="1" parent="23">
                    <mxGeometry relative="1" as="geometry">
                        <mxPoint x="280" y="49.999951690821206" as="sourcePoint"/>
                        <Array as="points">
                            <mxPoint x="64.61538461538461" y="50.9332850241546"/>
                        </Array>
                        <mxPoint y="50.9332850241546" as="targetPoint"/>
                    </mxGeometry>
                </mxCell>
            </root>
        </mxGraphModel>
    </diagram>
</mxfile>